<?xml version="1.0" standalone="no"?>
<!DOCTYPE svg PUBLIC "-//W3C//DTD SVG 20010904//EN"
 "http://www.w3.org/TR/2001/REC-SVG-20010904/DTD/svg10.dtd">
<svg version="1.0" xmlns="http://www.w3.org/2000/svg"
 width="16.000000pt" height="16.000000pt" viewBox="0 0 16.000000 16.000000"
 preserveAspectRatio="xMidYMid meet">
<metadata>
Created by potrace 1.11, written by Peter Selinger 2001-2013
</metadata>
<g transform="translate(0.000000,16.000000) scale(0.020000,-0.020000)"
fill="#000000" stroke="none">
<path d="M226 564 c-42 -85 -76 -160 -76 -165 0 -5 -4 -9 -10 -9 -5 0 -10 -7
-10 -15 0 -8 -7 -29 -16 -47 -15 -32 -14 -35 31 -130 41 -86 65 -119 65 -88 0
5 24 59 54 120 30 60 52 110 49 110 -3 0 0 8 8 18 8 9 28 45 44 80 16 34 31
62 34 62 7 0 171 -336 171 -350 0 -6 5 -10 10 -10 6 0 10 -8 10 -18 0 -42 15
-26 61 68 27 55 49 102 49 105 0 2 -26 58 -57 122 -31 65 -57 120 -57 123 -1
3 -21 44 -45 93 l-43 87 -98 0 -99 0 -75 -156z"/>
</g>
</svg>
